<?xml version="1.0" standalone="no"?>
<!DOCTYPE svg PUBLIC "-//W3C//DTD SVG 20010904//EN"
 "http://www.w3.org/TR/2001/REC-SVG-20010904/DTD/svg10.dtd">
<svg version="1.0" xmlns="http://www.w3.org/2000/svg"
 width="143.000000pt" height="127.000000pt" viewBox="0 0 143.000000 127.000000"
 preserveAspectRatio="xMidYMid meet">

<g transform="translate(0.000000,127.000000) scale(0.100000,-0.100000)"
fill="#000000" stroke="none">
<path d="M753 1155 c0 -33 2 -45 4 -27 2 18 2 45 0 60 -2 15 -4 0 -4 -33z"/>
<path d="M592 1191 c-11 -6 -11 -17 -1 -55 6 -25 14 -48 18 -50 4 -3 22 0 41
5 l35 8 -32 -3 c-18 -1 -34 1 -34 6 -5 26 -2 33 21 40 23 7 23 7 -5 5 -24 -2
-30 2 -30 18 0 14 9 22 30 26 l30 7 -30 1 c-16 0 -36 -3 -43 -8z"/>
<path d="M846 1174 c-24 -24 -19 -51 14 -75 23 -17 27 -26 19 -36 -9 -10 -8
-13 5 -13 9 0 16 6 16 14 0 9 8 13 23 10 12 -3 2 3 -23 13 -32 13 -46 25 -48
41 -7 48 49 69 96 36 13 -9 26 -14 29 -11 9 10 -55 37 -86 37 -16 0 -37 -7
-45 -16z"/>
<path d="M458 1144 c-16 -8 -28 -17 -28 -21 0 -12 52 -94 57 -90 2 3 0 14 -6
26 -10 17 -7 22 16 35 16 8 21 15 13 15 -8 1 -22 -3 -30 -9 -9 -6 -17 -5 -22
3 -13 20 -9 26 25 41 17 8 25 15 17 15 -8 0 -27 -7 -42 -15z"/>
<path d="M1101 1121 c13 -11 26 -17 29 -14 6 6 -30 33 -43 33 -5 0 1 -9 14
-19z"/>
<path d="M1032 1073 c-43 -25 -53 -45 -12 -23 30 16 70 -11 71 -48 1 -21 3
-19 10 13 19 93 8 103 -69 58z m68 -3 c0 -11 -6 -20 -14 -20 -21 0 -31 21 -15
31 22 14 29 11 29 -11z"/>
<path d="M310 1045 l-24 -25 39 -40 38 -39 34 26 c18 14 31 28 28 31 -3 3 -16
-5 -30 -18 -20 -19 -27 -21 -40 -10 -14 12 -13 16 7 38 l23 25 -24 -16 c-19
-12 -28 -14 -38 -5 -11 9 -10 15 8 35 13 12 18 23 12 23 -5 0 -20 -11 -33 -25z"/>
<path d="M1162 978 c-39 -39 34 -153 94 -146 24 2 30 9 32 32 5 41 -4 69 -32
99 -27 29 -73 36 -94 15z m69 -8 c22 -12 49 -60 49 -88 0 -27 -25 -45 -49 -37
-12 3 -32 26 -47 50 -20 36 -23 48 -14 64 12 23 31 26 61 11z"/>
<path d="M201 904 c-31 -40 -26 -57 23 -81 45 -22 69 -20 38 4 -16 12 -15 14
7 33 13 11 29 20 37 20 8 0 14 4 14 10 0 6 -9 6 -26 0 -33 -13 -31 -14 -30 13
1 34 -37 35 -63 1z m47 -35 c-11 -33 -17 -35 -42 -16 -16 12 -16 14 4 40 17
21 25 25 35 17 10 -9 11 -18 3 -41z"/>
<path d="M752 859 l3 -73 45 -17 45 -17 3 -166 2 -166 55 36 55 37 0 108 c0
60 4 109 9 109 5 0 27 -7 50 -15 40 -14 41 -14 41 8 0 18 -31 44 -140 120 -76
54 -146 100 -155 103 -14 6 -16 -3 -13 -67z"/>
<path d="M516 815 c-91 -71 -136 -112 -136 -125 0 -11 21 -35 53 -59 l52 -40
3 34 c6 67 53 36 101 -65 29 -63 46 -86 90 -120 l53 -42 -7 32 c-4 18 -20 71
-36 118 l-29 85 24 24 c13 13 28 42 34 64 10 40 10 41 -19 51 -28 10 -29 12
-29 79 0 38 -4 69 -9 69 -5 0 -71 -47 -145 -105z m104 -49 c0 -22 -22 -34 -79
-42 -67 -9 -67 10 -1 37 55 22 80 24 80 5z"/>
<path d="M242 645 c3 -27 0 -30 -29 -33 -18 -2 -33 -9 -33 -16 0 -8 12 -11 35
-8 27 3 35 1 35 -11 0 -9 4 -18 8 -21 5 -3 5 20 0 52 -9 59 -22 89 -16 37z"/>
<path d="M1210 613 c0 -10 -3 -28 -6 -40 -5 -18 0 -23 32 -32 45 -12 54 -4 52
49 l-1 35 -4 -32 c-5 -41 -33 -45 -34 -5 -1 25 -1 26 -7 4 -10 -33 -27 -27
-24 8 2 17 1 30 -2 30 -3 0 -6 -8 -6 -17z"/>
<path d="M1171 465 c-25 -56 -26 -66 -7 -39 13 16 18 17 35 7 24 -15 41 -17
41 -4 0 5 -13 14 -30 21 -25 10 -28 15 -19 32 6 11 8 22 6 25 -3 2 -15 -17
-26 -42z"/>
<path d="M225 487 c-19 -9 -25 -16 -17 -21 7 -4 16 -5 21 -1 5 3 12 -4 16 -15
9 -28 43 -46 51 -26 8 22 -10 71 -27 73 -8 1 -27 -3 -44 -10z m60 -28 c4 -11
4 -23 1 -26 -8 -9 -36 17 -36 33 0 22 28 16 35 -7z"/>
<path d="M1132 341 c22 -29 48 -40 48 -22 0 11 -49 51 -62 51 -5 0 1 -13 14
-29z"/>
<path d="M305 340 c-22 -6 -24 -8 -9 -9 29 -1 56 -34 48 -57 -4 -15 -3 -16 4
-4 5 8 13 30 17 48 7 35 1 38 -60 22z m55 -10 c0 -5 -4 -10 -9 -10 -6 0 -13 5
-16 10 -3 6 1 10 9 10 9 0 16 -4 16 -10z"/>
<path d="M1058 302 c-15 -6 -14 -10 8 -36 14 -15 28 -26 31 -22 3 3 -1 14 -10
24 -24 26 -22 30 21 35 l37 4 -35 1 c-19 0 -43 -2 -52 -6z"/>
<path d="M411 253 c-12 -14 -19 -29 -15 -32 3 -3 14 4 24 17 23 28 26 28 35
-5 3 -16 13 -39 22 -52 l16 -24 18 34 c20 38 23 49 11 49 -5 0 -15 -15 -24
-32 l-15 -32 -17 52 c-10 28 -21 52 -26 52 -5 0 -18 -12 -29 -27z"/>
<path d="M973 258 c-13 -6 -23 -17 -23 -24 0 -20 22 -64 32 -64 15 0 70 31 65
37 -3 2 -16 -3 -30 -12 -32 -20 -51 0 -21 23 18 14 18 14 -3 8 -27 -9 -40 10
-13 19 11 3 20 11 20 16 0 11 1 11 -27 -3z"/>
<path d="M570 184 c-13 -32 -13 -44 0 -44 6 0 10 5 10 10 0 6 13 10 29 10 37
0 50 19 26 37 -29 20 -54 16 -65 -13z m54 10 c20 -8 11 -24 -15 -24 -10 0 -19
7 -19 15 0 16 9 19 34 9z"/>
<path d="M827 204 c-8 -8 3 -66 14 -79 5 -5 9 0 9 13 0 21 4 22 38 18 20 -3
29 -3 19 0 -12 4 -15 12 -11 30 6 22 3 24 -28 24 -19 0 -37 -3 -41 -6z m61
-16 c-7 -20 -48 -23 -48 -4 0 11 9 16 26 16 16 0 24 -5 22 -12z"/>
<path d="M702 160 c-27 -37 -28 -49 -2 -25 11 10 20 24 20 32 0 7 5 13 10 13
6 0 10 -6 10 -13 0 -8 9 -22 20 -32 11 -10 20 -15 20 -11 0 10 -43 66 -50 66
-3 0 -16 -13 -28 -30z"/>
</g>
</svg>
